HIERARCHY
ROOT ZeroOut_JNT
{
  OFFSET 0 0 0
  CHANNELS 6 Xposition Yposition Zposition Zrotation Xrotation Yrotation
  JOINT SpineFinal_1_JNT
  {
    OFFSET 0 59.8141 -42.9993
    CHANNELS 6 Xposition Yposition Zposition Zrotation Xrotation Yrotation
    JOINT l_legIKClavicle_Root_JNT
    {
      OFFSET -0.323145 -1.55994 9.59625
      CHANNELS 6 Xposition Yposition Zposition Zrotation Xrotation Yrotation
      JOINT l_legBlendRoot_JNT
      {
        OFFSET 16.1374 0 0
        CHANNELS 6 Xposition Yposition Zposition Zrotation Xrotation Yrotation
        JOINT l_legBlendMiddle_JNT
        {
          OFFSET 27.0969 0 0
          CHANNELS 6 Xposition Yposition Zposition Zrotation Xrotation Yrotation
          JOINT l_legBlendEnd_JNT
          {
            OFFSET 24.8414 0 0
            CHANNELS 6 Xposition Yposition Zposition Zrotation Xrotation Yrotation
            JOINT l_legBlendTip_JNT
            {
              OFFSET 6.77858 0 0
              CHANNELS 6 Xposition Yposition Zposition Zrotation Xrotation Yrotation
              End Site
              {
                OFFSET 0 0 0
              }
            }
          }
        }
      }
    }
    JOINT SpineFinal_2_JNT
    {
      OFFSET -19.5366 0.0587492 -0.00256357
      CHANNELS 6 Xposition Yposition Zposition Zrotation Xrotation Yrotation
      JOINT SpineFinal_3_JNT
      {
        OFFSET -19.4679 1.47333 -0.00136182
        CHANNELS 6 Xposition Yposition Zposition Zrotation Xrotation Yrotation
        JOINT SpineFinal_4_JNT
        {
          OFFSET -18.2335 5.20609 0
          CHANNELS 6 Xposition Yposition Zposition Zrotation Xrotation Yrotation
          JOINT SpineFinal_5_JNT
          {
            OFFSET -17.3574 8.01768 -1.82773e-005
            CHANNELS 6 Xposition Yposition Zposition Zrotation Xrotation Yrotation
            JOINT SpineFinal_6_JNT
            {
              OFFSET -19.144 8.35871 0
              CHANNELS 6 Xposition Yposition Zposition Zrotation Xrotation Yrotation
              JOINT SpineFinal_7_JNT
              {
                OFFSET -16.3943 7.24542 0
                CHANNELS 6 Xposition Yposition Zposition Zrotation Xrotation Yrotation
                JOINT SpineFinal_8_JNT
                {
                  OFFSET -19.3877 2.40349 0
                  CHANNELS 6 Xposition Yposition Zposition Zrotation Xrotation Yrotation
                  JOINT head_JNT
                  {
                    OFFSET -13.796 -11.6756 0
                    CHANNELS 6 Xposition Yposition Zposition Zrotation Xrotation Yrotation
                    JOINT l_hornRoot_JNT
                    {
                      OFFSET -15.825 14.8229 15.3879
                      CHANNELS 6 Xposition Yposition Zposition Zrotation Xrotation Yrotation
                      JOINT l_hornMid_JNT
                      {
                        OFFSET 6.55118 0 0
                        CHANNELS 6 Xposition Yposition Zposition Zrotation Xrotation Yrotation
                        JOINT l_hornEnd_JNT
                        {
                          OFFSET 6.73503 0 0
                          CHANNELS 6 Xposition Yposition Zposition Zrotation Xrotation Yrotation
                          End Site
                          {
                            OFFSET 0 0 0
                          }
                        }
                      }
                    }
                    JOINT headJend_JNT
                    {
                      OFFSET 1.34858 -27.5886 0
                      CHANNELS 6 Xposition Yposition Zposition Zrotation Xrotation Yrotation
                      End Site
                      {
                        OFFSET 0 0 0
                      }
                    }
                    JOINT r_hornRoot_JNT
                    {
                      OFFSET -15.825 14.8229 -15.3879
                      CHANNELS 6 Xposition Yposition Zposition Zrotation Xrotation Yrotation
                      JOINT r_hornMid_JNT
                      {
                        OFFSET -2.40814 5.46468 -2.69372
                        CHANNELS 6 Xposition Yposition Zposition Zrotation Xrotation Yrotation
                        JOINT r_hornEnd_JNT
                        {
                          OFFSET -2.40922 6.0083 -1.85921
                          CHANNELS 6 Xposition Yposition Zposition Zrotation Xrotation Yrotation
                          End Site
                          {
                            OFFSET 0 0 0
                          }
                        }
                      }
                    }
                    JOINT m_upLip_JNT
                    {
                      OFFSET 4.72477 -9.87974 0
                      CHANNELS 6 Xposition Yposition Zposition Zrotation Xrotation Yrotation
                      JOINT l_lipUpRoot_JNT
                      {
                        OFFSET 2.68891 -0.690234 4.02874
                        CHANNELS 6 Xposition Yposition Zposition Zrotation Xrotation Yrotation
                        JOINT l_lipUpEnd_JNT
                        {
                          OFFSET 0 0 -14.9226
                          CHANNELS 6 Xposition Yposition Zposition Zrotation Xrotation Yrotation
                          End Site
                          {
                            OFFSET 0 0 0
                          }
                        }
                      }
                      JOINT m_upLipRoot_JNT
                      {
                        OFFSET 0 0 3.94939
                        CHANNELS 6 Xposition Yposition Zposition Zrotation Xrotation Yrotation
                        JOINT m_upLipEnd_JNT
                        {
                          OFFSET 0 0 15.0019
                          CHANNELS 6 Xposition Yposition Zposition Zrotation Xrotation Yrotation
                          End Site
                          {
                            OFFSET 0 0 0
                          }
                        }
                      }
                      JOINT r_lipUpRoot_JNT
                      {
                        OFFSET -2.689 -0.690236 4.02875
                        CHANNELS 6 Xposition Yposition Zposition Zrotation Xrotation Yrotation
                        JOINT r_lipUpEnd_JNT
                        {
                          OFFSET 9.35075e-005 -0.000392738 14.9226
                          CHANNELS 6 Xposition Yposition Zposition Zrotation Xrotation Yrotation
                          End Site
                          {
                            OFFSET 0 0 0
                          }
                        }
                      }
                    }
                    JOINT m_DnLip_JNT
                    {
                      OFFSET 6.0207 -9.81639 0
                      CHANNELS 6 Xposition Yposition Zposition Zrotation Xrotation Yrotation
                      JOINT l_lipDn_JNT
                      {
                        OFFSET 2.71301 -0.162748 3.99146
                        CHANNELS 6 Xposition Yposition Zposition Zrotation Xrotation Yrotation
                        JOINT l_lipEnd_JNT
                        {
                          OFFSET 0 0 -14.9599
                          CHANNELS 6 Xposition Yposition Zposition Zrotation Xrotation Yrotation
                          End Site
                          {
                            OFFSET 0 0 0
                          }
                        }
                      }
                      JOINT m_dnLip_JNT
                      {
                        OFFSET 0 -0.0431035 3.99141
                        CHANNELS 6 Xposition Yposition Zposition Zrotation Xrotation Yrotation
                        JOINT m_dnLipEnd_JNT
                        {
                          OFFSET 0 0 14.9599
                          CHANNELS 6 Xposition Yposition Zposition Zrotation Xrotation Yrotation
                          End Site
                          {
                            OFFSET 0 0 0
                          }
                        }
                      }
                      JOINT r_lipDn_JNT
                      {
                        OFFSET -2.71301 -0.162761 3.99141
                        CHANNELS 6 Xposition Yposition Zposition Zrotation Xrotation Yrotation
                        JOINT r_lipDnEnd_JNT
                        {
                          OFFSET 0 0 14.9599
                          CHANNELS 6 Xposition Yposition Zposition Zrotation Xrotation Yrotation
                          End Site
                          {
                            OFFSET 0 0 0
                          }
                        }
                      }
                    }
                    JOINT l_lid_JNT
                    {
                      OFFSET -7.85698 -6.72885 9.63956
                      CHANNELS 6 Xposition Yposition Zposition Zrotation Xrotation Yrotation
                      End Site
                      {
                        OFFSET 0 0 0
                      }
                    }
                    JOINT r_lid_JNT
                    {
                      OFFSET -7.85684 -6.72882 -9.63956
                      CHANNELS 6 Xposition Yposition Zposition Zrotation Xrotation Yrotation
                      End Site
                      {
                        OFFSET 0 0 0
                      }
                    }
                  }
                }
              }
            }
            JOINT l_FwClavicleRoot_JNT
            {
              OFFSET -0.15532 -4.55898 6.72563
              CHANNELS 6 Xposition Yposition Zposition Zrotation Xrotation Yrotation
              JOINT l_FwLegBlendRoot_JNT
              {
                OFFSET 21.051 0 0
                CHANNELS 6 Xposition Yposition Zposition Zrotation Xrotation Yrotation
                JOINT l_FwLegBlendMiddle_JNT
                {
                  OFFSET 33.1145 0 0
                  CHANNELS 6 Xposition Yposition Zposition Zrotation Xrotation Yrotation
                  JOINT l_FwLegBlendTip_JNT
                  {
                    OFFSET 29.9221 0 0
                    CHANNELS 6 Xposition Yposition Zposition Zrotation Xrotation Yrotation
                    JOINT l_FwLegBlendEnd_JNT
                    {
                      OFFSET 9.62649 0 0
                      CHANNELS 6 Xposition Yposition Zposition Zrotation Xrotation Yrotation
                      End Site
                      {
                        OFFSET 0 0 0
                      }
                    }
                  }
                }
              }
            }
            JOINT r_FwClavicleRoot_JNT
            {
              OFFSET -0.15532 -4.55898 -6.72563
              CHANNELS 6 Xposition Yposition Zposition Zrotation Xrotation Yrotation
              JOINT r_FwLegBlendRoot_JNT
              {
                OFFSET 1.1653 -12.7157 -16.7361
                CHANNELS 6 Xposition Yposition Zposition Zrotation Xrotation Yrotation
                JOINT r_FwLegBlendMiddle_JNT
                {
                  OFFSET 16.2308 -5.97551 28.2387
                  CHANNELS 6 Xposition Yposition Zposition Zrotation Xrotation Yrotation
                  JOINT r_FwLegBlendTip_JNT
                  {
                    OFFSET 26.7017 -9.19239 -9.89204
                    CHANNELS 6 Xposition Yposition Zposition Zrotation Xrotation Yrotation
                    JOINT r_FwLegBlendEnd_JNT
                    {
                      OFFSET 4.44874 -7.74942 3.58114
                      CHANNELS 6 Xposition Yposition Zposition Zrotation Xrotation Yrotation
                      End Site
                      {
                        OFFSET 0 0 0
                      }
                    }
                  }
                }
              }
            }
          }
        }
      }
    }
    JOINT r_legIKClavicle_Root_JNT
    {
      OFFSET -0.323145 -1.55994 -9.59625
      CHANNELS 6 Xposition Yposition Zposition Zrotation Xrotation Yrotation
      JOINT r_legBlendRoot_JNT
      {
        OFFSET 13.2848 -5.74129 -7.13912
        CHANNELS 6 Xposition Yposition Zposition Zrotation Xrotation Yrotation
        JOINT r_legBlendMiddle_JNT
        {
          OFFSET 14.815 16.9375 15.0957
          CHANNELS 6 Xposition Yposition Zposition Zrotation Xrotation Yrotation
          JOINT r_legBlendEnd_JNT
          {
            OFFSET 23.6904 -6.58016 -3.54465
            CHANNELS 6 Xposition Yposition Zposition Zrotation Xrotation Yrotation
            JOINT r_legBlendTip_JNT
            {
              OFFSET 1.47758 -6.16068 -2.41079
              CHANNELS 6 Xposition Yposition Zposition Zrotation Xrotation Yrotation
              End Site
              {
                OFFSET 0 0 0
              }
            }
          }
        }
      }
    }
    JOINT tailRoot_JNT
    {
      OFFSET 2.82533 14.5514 0
      CHANNELS 6 Xposition Yposition Zposition Zrotation Xrotation Yrotation
      JOINT tailMid_JNT
      {
        OFFSET 7.87756 0 0
        CHANNELS 6 Xposition Yposition Zposition Zrotation Xrotation Yrotation
        JOINT tailEnd_JNT
        {
          OFFSET 6.52588 0 0
          CHANNELS 6 Xposition Yposition Zposition Zrotation Xrotation Yrotation
          End Site
          {
            OFFSET 0 0 0
          }
        }
      }
    }
    JOINT l_shoulderBkRoot_JNT
    {
      OFFSET -9.30511 7.998 11.2048
      CHANNELS 6 Xposition Yposition Zposition Zrotation Xrotation Yrotation
      JOINT l_shoulderBkMid_JNT
      {
        OFFSET 0 0 0
        CHANNELS 6 Xposition Yposition Zposition Zrotation Xrotation Yrotation
        End Site
        {
          OFFSET 0 0 0
        }
      }
    }
    JOINT r_shoulderBkRoot_JNT
    {
      OFFSET -9.30514 7.99801 -11.2048
      CHANNELS 6 Xposition Yposition Zposition Zrotation Xrotation Yrotation
      JOINT r_shoulderBkMid_JNT
      {
        OFFSET 0 0 0
        CHANNELS 6 Xposition Yposition Zposition Zrotation Xrotation Yrotation
        End Site
        {
          OFFSET 0 0 0
        }
      }
    }
  }
}
MOTION
Frames:	3
Frame Time:	0.0416667
0 0 0 0 0 -0 6.20368e-014 64.0557 -42.9174 3.09787 -2.21044 90.0822 -0.323145 -1.55994 9.59625 -26.4062 61.2999 -67.9538 16.1374 -7.39955e-007 1.72966e-006 -31.0785 9.3469 31.839 27.0969 1.06581e-014 -4.26326e-014 5.263e-015 2.28602e-015 -60.5564 24.8414 3.55271e-015 1.77636e-014 0.615884 1.04217 -19.993 6.77858 -7.10543e-015 -1.42109e-014 -1.89576e-022 -1.89576e-022 -3.18055e-015 -19.2634 -2.85252 -0.141693 11.7281 2.66862 -0.583455 -18.9111 -0.416554 -0.00563714 18.1254 0.349194 -0.123631 -17.605 0.814951 7.51675e-006 -0.142035 0.00140376 -0.000341427 -16.564 8.5903 -0.000150278 6.58943 -0.00168077 0.000577125 -19.144 8.35871 -2.0782e-014 -6.67381 -3.2646e-015 -1.0736e-014 -16.3943 7.24542 2.60761e-014 -8.26401 2.72014e-015 -1.39292e-014 -19.3877 2.40349 -3.46627e-014 9.55418 5.50825e-015 -1.49054e-014 -13.796 -11.6756 2.832e-014 -37.1769 1.73284e-022 -1.18485e-023 -15.825 14.8229 15.3879 112.717 -2.35881 -24.301 6.55118 1.27898e-013 7.10543e-015 -7.71366e-009 -7.59931 2.05853 6.73503 2.84217e-014 -5.24025e-014 -3.18055e-015 -1.59028e-015 3.18055e-015 1.34858 -27.5886 -1.33918e-014 92.7985 1.31729e-014 -1.65353e-014 -15.825 14.8229 -15.3879 -9.54166e-015 4.77083e-015 6.36111e-015 -2.40814 5.46468 -2.69372 -36.0976 -3.24524 -12.7174 -2.40922 6.0083 -1.85921 3.18055e-015 0 -6.36111e-015 4.72477 -9.87974 -3.65628e-016 92.7985 3.50417e-015 -90 2.68891 -0.690234 4.02874 180 7.01671e-015 180 -4.44089e-016 -1.42109e-014 -14.9226 0 0 -9.775e-023 -5.92923e-021 -4.26326e-014 3.94939 -3.55455e-023 0 8.44205e-023 2.11758e-022 1.42109e-014 15.0019 -1.18485e-023 0 8.73826e-023 -2.689 -0.690236 4.02875 -3.55455e-023 0 8.44205e-023 9.35075e-005 -0.000392738 14.9226 -1.18485e-023 0 8.73826e-023 6.0207 -9.81639 -3.65621e-016 92.7985 3.50417e-015 -90 2.71301 -0.162748 3.99146 180 7.01671e-015 180 4.44089e-016 -1.42109e-014 -14.9599 0 0 -9.775e-023 -9.57677e-018 -0.0431035 3.99141 -3.55455e-023 0 8.44205e-023 4.23516e-022 0 14.9599 -1.18485e-023 0 8.73826e-023 -2.71301 -0.162761 3.99141 -3.55455e-023 0 8.44205e-023 4.44089e-016 0 14.9599 -1.18485e-023 0 8.73826e-023 -7.85698 -6.72885 9.63956 34.106 19.9417 85.9622 -7.85684 -6.72882 -9.63956 -145.894 19.9417 85.9622 2.68881 -6.56769 6.72563 11.7124 26.2605 -112.654 21.051 2.14207e-007 2.25592e-007 168.509 -60.0073 -133.708 33.1145 8.3753e-007 -2.8019e-007 71.9243 7.01671e-015 180 29.9221 -2.22045e-015 -7.10543e-015 -35.2562 -3.55922e-015 3.32525e-015 9.62649 2.13163e-014 7.10543e-015 29.859 -1.7467e-015 90 0.337369 -5.5989 -6.72563 -74.2581 9.37258 -17.9831 1.1653 -12.7157 -16.7361 59.3786 -68.3717 148.731 16.2308 -5.97551 28.2387 154.749 18.3399 105.656 26.7017 -9.19239 -9.89204 5.82475 56.733 61.05 4.44874 -7.74942 3.58114 29.859 -1.7467e-015 90 -0.323145 -1.55994 -9.59625 -62.7106 -9.24999 4.74057 13.2848 -5.74129 -7.13912 -15.9469 10.3406 47.6901 14.815 16.9375 15.0957 -3.26607 3.32244 -53.9528 23.6904 -6.58016 -3.54465 2.8603 0.865034 -51.0521 1.47758 -6.16068 -2.41079 7.95139e-016 0 -8.49804e-015 2.82533 14.5514 -2.66454e-014 33.8236 -1.11195e-015 -4.91992e-015 7.87756 0 -9.76996e-015 37.8503 -1.19271e-015 1.18028e-015 6.52588 2.84217e-014 -1.06581e-014 3.19085 -9.93923e-017 -6.02566e-016 -9.30511 7.998 11.2048 -6.8505 -4.18474e-016 -90 0 0 0 -4.11546e-016 1.59028e-015 -1.49089e-016 -9.30514 7.99801 -11.2048 173.149 4.18474e-016 -90 0 0 0 9.81499e-016 1.59028e-015 -3.72721e-017 
0 0 0 0 0 -0 6.21264e-014 64.0593 -42.9174 3.10234 -2.2113 90.0824 -0.323145 -1.55994 9.59625 -26.4062 61.2999 -67.9538 16.1374 -7.39924e-007 1.72967e-006 -31.0843 9.34545 31.8314 27.0969 2.13163e-014 -4.26326e-014 5.37263e-015 2.23633e-015 -60.5343 24.8414 7.10543e-015 1.77636e-014 0.616903 1.04336 -20.0056 6.77858 -7.10543e-015 -1.24345e-014 -3.79152e-022 -5.68727e-022 6.36111e-015 -19.2614 -2.89138 -0.144004 11.8419 2.67107 -0.590327 -18.9116 -0.379386 -0.00540822 17.8978 0.350396 -0.122494 -17.5819 0.825258 7.42138e-006 -0.149743 0.00139805 -0.000340131 -16.5762 8.56626 -0.000148902 6.71204 -0.00167317 0.000578518 -19.144 8.35871 -2.07811e-014 -6.67381 -3.2646e-015 -1.0736e-014 -16.3943 7.24542 2.60764e-014 -8.26401 2.72014e-015 -1.39292e-014 -19.3877 2.40349 -3.46624e-014 9.55418 5.50825e-015 -1.49054e-014 -13.796 -11.6756 2.83201e-014 -36.8641 -6.10938e-024 1.48106e-024 -15.825 14.8229 15.3879 112.717 -2.35881 -24.301 6.55118 1.42109e-013 7.10543e-015 -7.71367e-009 -7.59931 2.05853 6.73503 1.42109e-014 -5.06262e-014 -1.59028e-015 -1.59028e-015 -1.59028e-015 1.34858 -27.5886 -1.33918e-014 92.7985 1.31729e-014 -1.65353e-014 -15.825 14.8229 -15.3879 -7.95139e-015 -6.36111e-015 4.77083e-015 -2.40814 5.46468 -2.69372 -36.0976 -3.24524 -12.7174 -2.40922 6.0083 -1.85921 6.36111e-015 7.95139e-016 -0 4.72477 -9.87974 -3.65728e-016 92.7985 3.50417e-015 -90 2.68891 -0.690234 4.02874 180 7.01671e-015 -180 0 0 -14.9226 1.48106e-024 -7.95139e-016 -8.33097e-025 -1.56238e-020 1.42109e-014 3.94939 -1.28462e-042 -7.95139e-016 -9.25663e-026 6.61744e-024 0 15.0019 0 0 -9.25663e-026 -2.689 -0.690236 4.02875 -1.28462e-042 -7.95139e-016 -9.25663e-026 9.35075e-005 -0.000392738 14.9226 0 0 -9.25663e-026 6.0207 -9.81639 -3.65744e-016 92.7985 3.50417e-015 -90 2.71301 -0.162748 3.99146 180 7.01671e-015 -180 0 0 -14.9599 1.48106e-024 -7.95139e-016 -8.33097e-025 -9.58722e-018 -0.0431035 3.99141 -1.28462e-042 -7.95139e-016 -9.25663e-026 6.61744e-024 0 14.9599 0 0 -9.25663e-026 -2.71301 -0.162761 3.99141 -1.28462e-042 -7.95139e-016 -9.25663e-026 -4.44089e-016 0 14.9599 0 0 -9.25663e-026 -7.85698 -6.72885 9.63956 34.106 19.9417 85.9622 -7.85684 -6.72882 -9.63956 -145.894 19.9417 85.9622 2.56153 -6.52784 6.72563 11.1593 26.2605 -112.654 21.051 1.99621e-007 2.14986e-007 167.116 -60.713 -134.919 33.1145 8.3753e-007 -2.8019e-007 71.5741 -7.01671e-015 180 29.9221 -3.77476e-015 -1.77636e-014 -35.1735 -3.55442e-015 3.33039e-015 9.62649 1.77636e-014 7.10543e-015 29.859 -1.7467e-015 90 0.33737 -5.5989 -6.72563 -74.2581 9.37258 -17.9831 1.1653 -12.7157 -16.7361 59.3786 -68.3717 148.731 16.2308 -5.97551 28.2387 154.73 18.3348 105.716 26.7017 -9.19239 -9.89204 5.90376 56.709 60.9554 4.44874 -7.74942 3.58114 29.859 -1.7467e-015 90 -0.323145 -1.55994 -9.59625 -62.7106 -9.24999 4.74057 13.2848 -5.74129 -7.13912 -15.9519 10.3406 47.6969 14.815 16.9375 15.0957 -3.25839 3.31465 -53.9532 23.6904 -6.58016 -3.54465 2.8552 0.864898 -51.0536 1.47758 -6.16068 -2.41079 -7.95139e-016 7.95139e-016 -6.95746e-016 2.82533 14.5514 -9.76996e-015 33.8236 -2.66496e-015 -4.8081e-015 7.87756 0 -6.21725e-015 37.8503 -1.36664e-015 1.62755e-015 6.52588 -7.10543e-015 -1.77636e-015 3.19085 2.48481e-017 4.22417e-016 -9.30511 7.998 11.2048 -6.8505 -4.18474e-016 -90 0 0 0 7.237e-016 1.59028e-015 -7.45443e-017 -9.30514 7.99801 -11.2048 173.149 4.18474e-016 -90 0 0 0 -6.1499e-016 0 1.49089e-016 
0 0 0 0 0 -0 6.22741e-014 64.0675 -42.9175 3.10234 -2.2113 90.0824 -0.323145 -1.55994 9.59625 -26.4062 61.2999 -67.9538 16.1374 -7.39873e-007 1.72969e-006 -31.0843 9.34545 31.8314 27.0969 -7.10543e-015 -3.55271e-014 5.37263e-015 2.23633e-015 -60.5343 24.8414 1.42109e-014 1.77636e-014 0.616903 1.04336 -20.0056 6.77858 -7.10543e-015 -1.42109e-014 -3.79152e-022 -5.68727e-022 6.36111e-015 -19.2552 -3.00687 -0.15062 12.179 2.67338 -0.609638 -18.9137 -0.274437 -0.00474643 17.8978 0.350396 -0.122494 -17.5253 0.851801 7.18368e-006 -0.149743 0.00139805 -0.000340131 -16.6076 8.50503 -0.000145424 6.71204 -0.00167317 0.000578518 -19.144 8.35871 -2.07803e-014 -6.67381 -3.26578e-015 -1.0736e-014 -16.3943 7.24542 2.60772e-014 -8.26401 2.72067e-015 -1.39294e-014 -19.3877 2.40349 -3.46624e-014 9.55418 5.508e-015 -1.49051e-014 -13.796 -11.6756 2.83194e-014 -36.4007 -9.64562e-019 -1.94126e-019 -15.825 14.8229 15.3879 112.717 -2.35881 -24.301 6.55118 1.56319e-013 7.10543e-015 -7.71367e-009 -7.59931 2.05853 6.73503 2.84217e-014 -4.9738e-014 -1.59028e-015 2.38542e-015 2.98177e-015 1.34858 -27.5886 -1.33895e-014 92.7985 1.31728e-014 -1.65337e-014 -15.825 14.8229 -15.3879 -7.95139e-015 -3.18159e-015 7.95124e-015 -2.40814 5.46468 -2.69372 -36.0976 -3.24524 -12.7174 -2.40922 6.0083 -1.85921 3.18055e-015 7.95139e-016 -7.95139e-016 4.72477 -9.87974 -3.65159e-016 92.7985 3.50417e-015 -90 2.68891 -0.690234 4.02874 180 7.01671e-015 180 -4.44089e-016 -1.42109e-014 -14.9226 4.85314e-020 7.95139e-016 -1.94126e-019 8.67362e-019 4.26326e-014 3.94939 -9.70628e-020 0 2.42657e-019 8.67362e-019 -1.42109e-014 15.0019 -1.45594e-019 0 2.5479e-019 -2.689 -0.690236 4.02875 -9.70628e-020 0 2.42657e-019 9.35075e-005 -0.000392738 14.9226 -1.45594e-019 0 2.5479e-019 6.0207 -9.81639 -3.64292e-016 92.7985 3.50417e-015 -90 2.71301 -0.162748 3.99146 180 7.01671e-015 180 4.44089e-016 0 -14.9599 4.85314e-020 7.95139e-016 -1.94126e-019 -8.67362e-018 -0.0431035 3.99141 -9.70628e-020 0 2.42657e-019 -8.67362e-019 -1.42109e-014 14.9599 -1.45594e-019 0 2.5479e-019 -2.71301 -0.162761 3.99141 -9.70628e-020 0 2.42657e-019 4.44089e-016 0 14.9599 -1.45594e-019 0 2.5479e-019 -7.85698 -6.72885 9.63956 34.106 19.9417 85.9622 -7.85684 -6.72882 -9.63956 -145.894 19.9417 85.9622 2.46555 -6.49689 6.72563 11.1593 26.2605 -112.654 21.051 1.88666e-007 2.06663e-007 167.116 -60.713 -134.919 33.1145 8.3753e-007 -2.8019e-007 71.5741 7.01671e-015 180 29.9221 -1.37668e-014 3.55271e-015 -35.1735 -3.554e-015 3.33013e-015 9.62649 2.4869e-014 1.06581e-014 29.859 -1.7467e-015 90 0.33737 -5.5989 -6.72563 -74.2581 9.37258 -17.9831 1.1653 -12.7157 -16.7361 59.3786 -68.3717 148.731 16.2308 -5.97551 28.2387 154.73 18.3348 105.716 26.7017 -9.19239 -9.89204 5.90376 56.709 60.9554 4.44874 -7.74942 3.58114 29.859 -1.7467e-015 90 -0.323145 -1.55994 -9.59625 -62.7106 -9.24999 4.74057 13.2848 -5.74129 -7.13912 -15.9519 10.3406 47.6969 14.815 16.9375 15.0957 -3.25839 3.31465 -53.9532 23.6904 -6.58016 -3.54465 2.8552 0.864898 -51.0536 1.47758 -6.16068 -2.41079 -7.95139e-016 7.95139e-016 -6.95746e-016 2.82533 14.5514 4.84057e-014 33.8236 -2.66496e-015 -4.8081e-015 7.87756 -2.84217e-014 1.15463e-014 37.8503 -1.36664e-015 1.62755e-015 6.52588 4.61853e-014 2.17604e-014 3.19085 2.48481e-017 4.22417e-016 -9.30511 7.998 11.2048 -6.8505 -4.18474e-016 -90 0 0 0 7.237e-016 1.59028e-015 -7.45443e-017 -9.30514 7.99801 -11.2048 173.149 4.18474e-016 -90 0 0 0 -6.1499e-016 0 1.49089e-016 
